<?xml version="1.0" encoding="UTF-8"?>
<svg width="1400" height="800" viewBox="0 0 1400 800" xmlns="http://www.w3.org/2000/svg" role="img" aria-label="Farmers Hub Background Crest">
  <defs>
    <linearGradient id="bgCore" x1="0" y1="0" x2="1" y2="1">
      <stop offset="0%" stop-color="oklch(0.80 0.16 300)"/>
      <stop offset="100%" stop-color="oklch(0.62 0.22 300)"/>
    </linearGradient>
    <radialGradient id="bgGlow" cx="50%" cy="40%" r="70%">
      <stop offset="0%" stop-color="oklch(0.70 0.12 300)" stop-opacity="0.14"/>
      <stop offset="100%" stop-color="oklch(0.70 0.12 300)" stop-opacity="0"/>
    </radialGradient>
    <filter id="blur" x="-20%" y="-20%" width="140%" height="140%">
      <feGaussianBlur stdDeviation="20"/>
    </filter>
  </defs>

  <!-- Subtle page backdrop -->
  <rect width="1400" height="800" fill="url(#bgGlow)"/>

  <!-- Oversized emblem watermark (very faint for hero use) -->
  <g transform="translate(700,420) scale(2.4) translate(-256,-256)" opacity="0.10">
    <!-- base -->
    <path d="M256 76c74 0 160 28 160 112 0 138-96 214-160 240-64-26-160-102-160-240 0-84 86-112 160-112z"
          fill="url(#bgCore)"/>
    <!-- wheat bundle -->
    <g transform="translate(0,-6)" stroke="white" stroke-linecap="round" stroke-linejoin="round">
      <path d="M256 148v208" stroke-width="14"/>
      <g stroke-width="12" opacity="0.9">
        <path d="M256 188c-44-6-74-28-90-62"/>
        <path d="M256 220c-52-6-92-34-110-78" opacity="0.85"/>
        <path d="M256 252c-56-6-100-40-124-92" opacity="0.75"/>
      </g>
      <g stroke-width="12" opacity="0.9">
        <path d="M256 188c44-6 74-28 90-62"/>
        <path d="M256 220c52-6 92-34 110-78" opacity="0.85"/>
        <path d="M256 252c56-6 100-40 124-92" opacity="0.75"/>
      </g>
      <g fill="white" stroke="none" opacity="0.95">
        <path d="M256 168l12 12-12 12-12-12z"/>
        <path d="M256 202l10 10-10 10-10-10z" opacity="0.9"/>
        <path d="M256 234l9 9-9 9-9-9z" opacity="0.85"/>
        <path d="M256 266l8 8-8 8-8-8z" opacity="0.8"/>
      </g>
    </g>
    <!-- soft shadow -->
    <ellipse cx="256" cy="460" rx="120" ry="24" fill="oklch(0.16 0.03 260)" opacity="0.06" filter="url(#blur)"/>
  </g>
</svg>