<?xml version="1.0" encoding="UTF-8"?>
<svg width="512" height="512" viewBox="0 0 512 512" xmlns="http://www.w3.org/2000/svg" role="img" aria-label="Farmers Hub Logo">
  <defs>
    <linearGradient id="g1" x1="0%" y1="0%" x2="100%" y2="100%">
      <stop offset="0%" stop-color="oklch(0.78 0.15 170)" />
      <stop offset="100%" stop-color="oklch(0.62 0.15 170)" />
    </linearGradient>
    <linearGradient id="g2" x1="0%" y1="100%" x2="100%" y2="0%">
      <stop offset="0%" stop-color="oklch(0.7 0.12 170)" />
      <stop offset="100%" stop-color="oklch(0.64 0.16 170)" />
    </linearGradient>
    <filter id="soft" x="-20%" y="-20%" width="140%" height="140%">
      <feGaussianBlur stdDeviation="6" />
    </filter>
  </defs>

  <!-- Soft background glow -->
  <circle cx="256" cy="256" r="210" fill="url(#g2)" opacity="0.12" filter="url(#soft)"/>

  <!-- Shield / seed pod -->
  <path d="M256 80c60 0 132 22 132 92 0 116-66 184-132 212-66-28-132-96-132-212 0-70 72-92 132-92z"
        fill="url(#g1)"/>

  <!-- Central sprout -->
  <g transform="translate(0,-6)">
    <path d="M256 150c-10 0-18 8-18 18v162c0 10 8 18 18 18s18-8 18-18V168c0-10-8-18-18-18z" fill="white"/>
    <path d="M256 196c48 0 78-22 88-60-46 0-78 16-88 44-10-28-42-44-88-44 10 38 40 60 88 60z" fill="white" opacity="0.9"/>
  </g>

  <!-- Wheat arcs -->
  <g fill="none" stroke="white" stroke-width="8" stroke-linecap="round" opacity="0.9">
    <path d="M196 228c-22 8-42 26-50 52" />
    <path d="M316 228c22 8 42 26 50 52" />
    <path d="M180 264c-16 10-28 24-34 42" />
    <path d="M332 264c16 10 28 24 34 42" />
  </g>

  <!-- Base ribbon -->
  <path d="M188 362c22 12 46 22 68 30 22-8 46-18 68-30l-26 44-42 16-42-16-26-44z"
        fill="white" opacity="0.9"/>
</svg>