<?xml version="1.0" encoding="UTF-8"?>
<svg width="1400" height="800" viewBox="0 0 1400 800" xmlns="http://www.w3.org/2000/svg" role="img" aria-label="Farmers Hub Background Logo">
  <defs>
    <linearGradient id="bgGrad" x1="0%" y1="0%" x2="100%" y2="100%">
      <stop offset="0%" stop-color="oklch(0.80 0.10 170)" />
      <stop offset="100%" stop-color="oklch(0.62 0.15 170)" />
    </linearGradient>
  </defs>

  <!-- Large faint emblem -->
  <g transform="translate(700,400) scale(2.2) translate(-256,-256)" opacity="0.12">
    <circle cx="256" cy="256" r="220" fill="url(#bgGrad)"/>
    <path d="M256 80c60 0 132 22 132 92 0 116-66 184-132 212-66-28-132-96-132-212 0-70 72-92 132-92z"
          fill="url(#bgGrad)"/>
    <g transform="translate(0,-6)" fill="white">
      <path d="M256 150c-10 0-18 8-18 18v162c0 10 8 18 18 18s18-8 18-18V168c0-10-8-18-18-18z" />
      <path d="M256 196c48 0 78-22 88-60-46 0-78 16-88 44-10-28-42-44-88-44 10 38 40 60 88 60z" opacity="0.9"/>
    </g>
    <g fill="none" stroke="white" stroke-width="10" stroke-linecap="round" opacity="0.8">
      <path d="M196 228c-22 8-42 26-50 52" />
      <path d="M316 228c22 8 42 26 50 52" />
      <path d="M180 264c-16 10-28 24-34 42" />
      <path d="M332 264c16 10 28 24 34 42" />
    </g>
  </g>
</svg>